<svg width="15" height="20" viewBox="0 0 15 20" fill="none" xmlns="http://www.w3.org/2000/svg">
<path d="M3.67678 11.1112C3.67678 11.5927 3.77401 12.0487 3.96845 12.4793C4.1629 12.9098 4.44067 13.2871 4.80178 13.6112C4.79253 13.5649 4.7879 13.5233 4.7879 13.4862C4.7879 13.4492 4.7879 13.4075 4.7879 13.3612C4.7879 13.0649 4.84345 12.7871 4.95456 12.5279C5.06567 12.2686 5.22771 12.0325 5.44067 11.8196L7.01012 10.2779L8.57956 11.8196C8.79253 12.0325 8.95456 12.2686 9.06567 12.5279C9.17679 12.7871 9.23234 13.0649 9.23234 13.3612C9.23234 13.4075 9.23234 13.4492 9.23234 13.4862C9.23234 13.5233 9.22771 13.5649 9.21845 13.6112C9.57956 13.2871 9.85734 12.9098 10.0518 12.4793C10.2462 12.0487 10.3435 11.5927 10.3435 11.1112C10.3435 10.6483 10.2578 10.2108 10.0865 9.79872C9.91521 9.38668 9.66753 9.01863 9.34345 8.69455C9.15827 8.81492 8.96382 8.9052 8.76012 8.96539C8.55642 9.02557 8.34808 9.05566 8.13512 9.05566C7.56104 9.05566 7.06336 8.86585 6.64206 8.48622C6.22077 8.10659 5.97771 7.639 5.9129 7.08344C5.55179 7.389 5.23234 7.70613 4.95456 8.03483C4.67678 8.36353 4.44299 8.69687 4.25317 9.03483C4.06336 9.37279 3.91984 9.7177 3.82262 10.0696C3.7254 10.4214 3.67678 10.7686 3.67678 11.1112ZM7.01012 11.8334L6.21845 12.6112C6.1166 12.7131 6.0379 12.8288 5.98234 12.9584C5.92679 13.0881 5.89901 13.2223 5.89901 13.3612C5.89901 13.6575 6.0078 13.9121 6.2254 14.1251C6.44299 14.3381 6.70456 14.4446 7.01012 14.4446C7.31567 14.4446 7.57725 14.3381 7.79484 14.1251C8.01243 13.9121 8.12123 13.6575 8.12123 13.3612C8.12123 13.2131 8.09345 13.0765 8.0379 12.9515C7.98234 12.8265 7.90364 12.7131 7.80179 12.6112L7.01012 11.8334ZM7.01012 5.00011V6.83344C7.01012 7.14826 7.11892 7.41215 7.33651 7.62511C7.5541 7.83807 7.8203 7.94455 8.13512 7.94455C8.30179 7.94455 8.45688 7.90983 8.6004 7.84039C8.74392 7.77094 8.87123 7.66678 8.98234 7.52789L9.23234 7.22233C9.91753 7.61122 10.4592 8.15289 10.8573 8.84733C11.2555 9.54178 11.4546 10.2964 11.4546 11.1112C11.4546 12.352 11.024 13.4029 10.1629 14.264C9.30179 15.1251 8.25086 15.5557 7.01012 15.5557C5.76938 15.5557 4.71845 15.1251 3.85734 14.264C2.99623 13.4029 2.56567 12.352 2.56567 11.1112C2.56567 9.91678 2.96614 8.78252 3.76706 7.70844C4.56799 6.63437 5.64901 5.73159 7.01012 5.00011Z" fill="#F97316"/>
</svg>
