<svg width="20" height="24" viewBox="0 0 20 24" fill="none" xmlns="http://www.w3.org/2000/svg">
<path d="M4.99992 13.6668C4.99992 14.3891 5.14575 15.0731 5.43742 15.7189C5.72909 16.3647 6.14575 16.9307 6.68742 17.4168C6.67353 17.3474 6.66659 17.2849 6.66659 17.2293C6.66659 17.1738 6.66659 17.1113 6.66659 17.0418C6.66659 16.5974 6.74992 16.1807 6.91659 15.7918C7.08325 15.4029 7.32631 15.0488 7.64575 14.7293L9.99992 12.4168L12.3541 14.7293C12.6735 15.0488 12.9166 15.4029 13.0833 15.7918C13.2499 16.1807 13.3333 16.5974 13.3333 17.0418C13.3333 17.1113 13.3333 17.1738 13.3333 17.2293C13.3333 17.2849 13.3263 17.3474 13.3124 17.4168C13.8541 16.9307 14.2708 16.3647 14.5624 15.7189C14.8541 15.0731 14.9999 14.3891 14.9999 13.6668C14.9999 12.9724 14.8714 12.3161 14.6145 11.6981C14.3576 11.08 13.986 10.5279 13.4999 10.0418C13.2221 10.2224 12.9305 10.3578 12.6249 10.4481C12.3194 10.5384 12.0069 10.5835 11.6874 10.5835C10.8263 10.5835 10.0798 10.2988 9.44784 9.72933C8.81589 9.15988 8.45131 8.4585 8.35409 7.62516C7.81242 8.0835 7.33325 8.55919 6.91659 9.05225C6.49992 9.5453 6.14922 10.0453 5.8645 10.5522C5.57978 11.0592 5.3645 11.5766 5.21867 12.1043C5.07284 12.6321 4.99992 13.1529 4.99992 13.6668ZM9.99992 14.7502L8.81242 15.9168C8.65964 16.0696 8.54159 16.2432 8.45825 16.4377C8.37492 16.6321 8.33325 16.8335 8.33325 17.0418C8.33325 17.4863 8.49645 17.8682 8.82284 18.1877C9.14922 18.5071 9.54159 18.6668 9.99992 18.6668C10.4583 18.6668 10.8506 18.5071 11.177 18.1877C11.5034 17.8682 11.6666 17.4863 11.6666 17.0418C11.6666 16.8196 11.6249 16.6147 11.5416 16.4272C11.4583 16.2397 11.3402 16.0696 11.1874 15.9168L9.99992 14.7502ZM9.99992 4.50016V7.25016C9.99992 7.72238 10.1631 8.11822 10.4895 8.43766C10.8159 8.75711 11.2152 8.91683 11.6874 8.91683C11.9374 8.91683 12.1701 8.86475 12.3853 8.76058C12.6006 8.65641 12.7916 8.50016 12.9583 8.29183L13.3333 7.8335C14.361 8.41683 15.1735 9.22933 15.7708 10.271C16.368 11.3127 16.6666 12.4446 16.6666 13.6668C16.6666 15.5279 16.0208 17.1043 14.7291 18.396C13.4374 19.6877 11.861 20.3335 9.99992 20.3335C8.13881 20.3335 6.56242 19.6877 5.27075 18.396C3.97909 17.1043 3.33325 15.5279 3.33325 13.6668C3.33325 11.8752 3.93395 10.1738 5.13534 8.56266C6.33672 6.95155 7.95825 5.59738 9.99992 4.50016Z" fill="#EF4444"/>
</svg>
