<svg width="32" height="32" viewBox="0 0 32 32" fill="none" xmlns="http://www.w3.org/2000/svg">
<rect width="32" height="32" rx="4" fill="#135BEC"/>
<path d="M13.3333 23.5H10.1667C9.70833 23.5 9.31597 23.3368 8.98958 23.0104C8.66319 22.684 8.5 22.2917 8.5 21.8333V18.6667C9.16667 18.6667 9.75 18.4549 10.25 18.0312C10.75 17.6076 11 17.0694 11 16.4167C11 15.7639 10.75 15.2257 10.25 14.8021C9.75 14.3785 9.16667 14.1667 8.5 14.1667V11C8.5 10.5417 8.66319 10.1493 8.98958 9.82292C9.31597 9.49653 9.70833 9.33333 10.1667 9.33333H13.5C13.5 8.75 13.7014 8.25694 14.1042 7.85417C14.5069 7.45139 15 7.25 15.5833 7.25C16.1667 7.25 16.6597 7.45139 17.0625 7.85417C17.4653 8.25694 17.6667 8.75 17.6667 9.33333H21C21.4583 9.33333 21.8507 9.49653 22.1771 9.82292C22.5035 10.1493 22.6667 10.5417 22.6667 11V14.3333C23.25 14.3333 23.7431 14.5347 24.1458 14.9375C24.5486 15.3403 24.75 15.8333 24.75 16.4167C24.75 17 24.5486 17.4931 24.1458 17.8958C23.7431 18.2986 23.25 18.5 22.6667 18.5V21.8333C22.6667 22.2917 22.5035 22.684 22.1771 23.0104C21.8507 23.3368 21.4583 23.5 21 23.5H17.8333C17.8333 22.8056 17.6146 22.2153 17.1771 21.7292C16.7396 21.2431 16.2083 21 15.5833 21C14.9583 21 14.4271 21.2431 13.9896 21.7292C13.5521 22.2153 13.3333 22.8056 13.3333 23.5ZM10.1667 21.8333H11.9375C12.2708 20.9167 12.8056 20.2708 13.5417 19.8958C14.2778 19.5208 14.9583 19.3333 15.5833 19.3333C16.2083 19.3333 16.8889 19.5208 17.625 19.8958C18.3611 20.2708 18.8958 20.9167 19.2292 21.8333H21V16.8333H22.6667C22.7778 16.8333 22.875 16.7917 22.9583 16.7083C23.0417 16.625 23.0833 16.5278 23.0833 16.4167C23.0833 16.3056 23.0417 16.2083 22.9583 16.125C22.875 16.0417 22.7778 16 22.6667 16H21V11H16V9.33333C16 9.22222 15.9583 9.125 15.875 9.04167C15.7917 8.95833 15.6944 8.91667 15.5833 8.91667C15.4722 8.91667 15.375 8.95833 15.2917 9.04167C15.2083 9.125 15.1667 9.22222 15.1667 9.33333V11H10.1667V12.8333C10.9167 13.1111 11.5208 13.5764 11.9792 14.2292C12.4375 14.8819 12.6667 15.6111 12.6667 16.4167C12.6667 17.2083 12.4375 17.9306 11.9792 18.5833C11.5208 19.2361 10.9167 19.7083 10.1667 20V21.8333Z" fill="white"/>
</svg>
