<svg width="20" height="24" viewBox="0 0 20 24" fill="none" xmlns="http://www.w3.org/2000/svg">
<path d="M7.33333 19.5H4.16667C3.70833 19.5 3.31597 19.3368 2.98958 19.0104C2.66319 18.684 2.5 18.2917 2.5 17.8333V14.6667C3.16667 14.6667 3.75 14.4549 4.25 14.0312C4.75 13.6076 5 13.0694 5 12.4167C5 11.7639 4.75 11.2257 4.25 10.8021C3.75 10.3785 3.16667 10.1667 2.5 10.1667V7C2.5 6.54167 2.66319 6.14931 2.98958 5.82292C3.31597 5.49653 3.70833 5.33333 4.16667 5.33333H7.5C7.5 4.75 7.70139 4.25694 8.10417 3.85417C8.50694 3.45139 9 3.25 9.58333 3.25C10.1667 3.25 10.6597 3.45139 11.0625 3.85417C11.4653 4.25694 11.6667 4.75 11.6667 5.33333H15C15.4583 5.33333 15.8507 5.49653 16.1771 5.82292C16.5035 6.14931 16.6667 6.54167 16.6667 7V10.3333C17.25 10.3333 17.7431 10.5347 18.1458 10.9375C18.5486 11.3403 18.75 11.8333 18.75 12.4167C18.75 13 18.5486 13.4931 18.1458 13.8958C17.7431 14.2986 17.25 14.5 16.6667 14.5V17.8333C16.6667 18.2917 16.5035 18.684 16.1771 19.0104C15.8507 19.3368 15.4583 19.5 15 19.5H11.8333C11.8333 18.8056 11.6146 18.2153 11.1771 17.7292C10.7396 17.2431 10.2083 17 9.58333 17C8.95833 17 8.42708 17.2431 7.98958 17.7292C7.55208 18.2153 7.33333 18.8056 7.33333 19.5ZM4.16667 17.8333H5.9375C6.27083 16.9167 6.80556 16.2708 7.54167 15.8958C8.27778 15.5208 8.95833 15.3333 9.58333 15.3333C10.2083 15.3333 10.8889 15.5208 11.625 15.8958C12.3611 16.2708 12.8958 16.9167 13.2292 17.8333H15V12.8333H16.6667C16.7778 12.8333 16.875 12.7917 16.9583 12.7083C17.0417 12.625 17.0833 12.5278 17.0833 12.4167C17.0833 12.3056 17.0417 12.2083 16.9583 12.125C16.875 12.0417 16.7778 12 16.6667 12H15V7H10V5.33333C10 5.22222 9.95833 5.125 9.875 5.04167C9.79167 4.95833 9.69444 4.91667 9.58333 4.91667C9.47222 4.91667 9.375 4.95833 9.29167 5.04167C9.20833 5.125 9.16667 5.22222 9.16667 5.33333V7H4.16667V8.83333C4.91667 9.11111 5.52083 9.57639 5.97917 10.2292C6.4375 10.8819 6.66667 11.6111 6.66667 12.4167C6.66667 13.2083 6.4375 13.9306 5.97917 14.5833C5.52083 15.2361 4.91667 15.7083 4.16667 16V17.8333Z" fill="#F97316"/>
</svg>
