<svg width="15" height="20" viewBox="0 0 15 20" fill="none" xmlns="http://www.w3.org/2000/svg">
<path d="M4.78768 13.3334L7.0099 11.639L9.23212 13.3334L8.39879 10.5834L10.621 9.00011H7.89879L7.0099 6.11122L6.12101 9.00011H3.39879L5.62101 10.5834L4.78768 13.3334ZM7.0099 15.5557C6.24138 15.5557 5.51916 15.4098 4.84323 15.1182C4.16731 14.8265 3.57935 14.4307 3.07935 13.9307C2.57935 13.4307 2.18351 12.8427 1.89185 12.1668C1.60018 11.4908 1.45435 10.7686 1.45435 10.0001C1.45435 9.23159 1.60018 8.50937 1.89185 7.83344C2.18351 7.15752 2.57935 6.56955 3.07935 6.06955C3.57935 5.56955 4.16731 5.17372 4.84323 4.88205C5.51916 4.59039 6.24138 4.44455 7.0099 4.44455C7.77842 4.44455 8.50064 4.59039 9.17657 4.88205C9.85249 5.17372 10.4405 5.56955 10.9405 6.06955C11.4405 6.56955 11.8363 7.15752 12.128 7.83344C12.4196 8.50937 12.5655 9.23159 12.5655 10.0001C12.5655 10.7686 12.4196 11.4908 12.128 12.1668C11.8363 12.8427 11.4405 13.4307 10.9405 13.9307C10.4405 14.4307 9.85249 14.8265 9.17657 15.1182C8.50064 15.4098 7.77842 15.5557 7.0099 15.5557ZM7.0099 14.4446C8.25064 14.4446 9.30157 14.014 10.1627 13.1529C11.0238 12.2918 11.4543 11.2408 11.4543 10.0001C11.4543 8.75937 11.0238 7.70844 10.1627 6.84733C9.30157 5.98622 8.25064 5.55566 7.0099 5.55566C5.76916 5.55566 4.71823 5.98622 3.85712 6.84733C2.99601 7.70844 2.56546 8.75937 2.56546 10.0001C2.56546 11.2408 2.99601 12.2918 3.85712 13.1529C4.71823 14.014 5.76916 14.4446 7.0099 14.4446Z" fill="#135BEC"/>
</svg>
