<svg width="20" height="24" viewBox="0 0 20 24" fill="none" xmlns="http://www.w3.org/2000/svg">
<path d="M3.33325 13.6665V11.9998H9.16659V13.6665H3.33325ZM3.33325 10.3332V8.6665H12.4999V10.3332H3.33325ZM3.33325 6.99984V5.33317H12.4999V6.99984H3.33325ZM10.8333 18.6665V16.104L15.4374 11.5207C15.5624 11.3957 15.7013 11.3054 15.8541 11.2498C16.0069 11.1943 16.1596 11.1665 16.3124 11.1665C16.4791 11.1665 16.6388 11.1978 16.7916 11.2603C16.9444 11.3228 17.0833 11.4165 17.2083 11.5415L17.9791 12.3123C18.0902 12.4373 18.177 12.5762 18.2395 12.729C18.302 12.8818 18.3333 13.0346 18.3333 13.1873C18.3333 13.3401 18.3055 13.4964 18.2499 13.6561C18.1944 13.8158 18.1041 13.9582 17.9791 14.0832L13.3958 18.6665H10.8333ZM12.0833 17.4165H12.8749L15.3958 14.8748L15.0208 14.479L14.6249 14.104L12.0833 16.6248V17.4165ZM15.0208 14.479L14.6249 14.104L15.3958 14.8748L15.0208 14.479Z" fill="white"/>
</svg>
